<svg xmlns="http://www.w3.org/2000/svg" id="gitep" viewBox="0 0 590.68 321.74"><path class="color-orange" fill="#f6921e" d="M590.7 15.37l-18.16 5.16c-3.8 34.5-17.02 44.12-23.6 46.78a30.22 30.22 0 0 0 3.94.3c11.52 0 33.15-6.3 37.8-52.2"/><path class="color-po" fill="#843936" d="M572.54 20.53l-26.9 7.66v38.4a21.75 21.75 0 0 0 3.3.6c6.58-2.7 19.8-12.3 23.6-46.8"/><path class="color-purple" fill="#7f3f97" d="M573.58 0l-28.45 22.25v46.08a13.27 13.27 0 0 0 3.8-1.02 21.75 21.75 0 0 1-3.3-.6V28.2l26.9-7.67A186.37 186.37 0 0 0 573.6 0"/><path class="color-blue" fill="#224099" d="M514.24 0a188.28 188.28 0 0 0 1.04 20.53l26.9 7.66v38.4a21.73 21.73 0 0 1-3.28.6 13.32 13.32 0 0 0 3.8 1v-46z"/><path class="color-gb" fill="#31423c" d="M515.28 20.53c3.8 34.5 17.03 44.12 23.62 46.78a21.73 21.73 0 0 0 3.28-.6V28.2z"/><path class="color-green" fill="#8bc53f" d="M497.14 15.37c4.66 45.9 26.3 52.2 37.8 52.2a30.36 30.36 0 0 0 3.96-.26c-6.6-2.6-19.82-12.2-23.62-46.7z"/><path class="color-orange" fill="#f6921e" d="M481.23 81.8q-21.75 0-36.68 14.6V85h-39.7v236.74h39.7v-70.98a77.4 77.4 0 0 0 34.14 7.46q38.9 0 61.3-22.54 22.4-22.56 22.4-64.33 0-89.55-81.3-89.54zm-71.03 22.1q22.4 22.06 22.38 56.2 0-34.13-22.38-56.2zm99.06 107.74q-11.98 13.1-39.47 13.1a39 39 0 0 1-25.3-8.74v-89.4q11.1-11.1 25.4-11.1 27.4 0 39.4 12.3 11.9 12.3 11.9 42.47 0 28.28-12 41.38z"/><path class="color-red" fill="#b71e4e" d="M429.25 182.16q3.35-14.76 3.33-22.07 0-34.2-22.38-56.3c-1.72-1.7-3.5-3.3-5.34-4.8q-21.3-17.3-54.05-17.3-34.7 0-59.6 24.9l-1.4 1.5a83.84 83.84 0 0 0-7.2 8.64q-16.2 22.5-16.2 54.92 0 31.1 13.2 51.72a69.87 69.87 0 0 0 9.5 11.87 74.83 74.83 0 0 0 6.5 5.8q21.46 17 55.04 17 34.1 0 54.37-11.43a59.42 59.42 0 0 0 8.2-5.57L404.9 225l-7.2-14.15Q383.52 225 356.37 225q-21.75 0-34.6-11.3-12.9-11.24-14-31.57h121.48zM309.2 152.3q8.27-37.3 42.25-37.3 37.15 0 41.28 37.3z"/><path class="color-ro" fill="#b82227" d="M404.86 99.1v83.06h24.4q3.34-14.76 3.32-22.07 0-34.2-22.38-56.3c-1.72-1.7-3.5-3.3-5.34-4.8m0 126v21.7a59.42 59.42 0 0 0 8.2-5.6z"/><path class="color-purple" fill="#7f3f97" d="M279.48 223.56a48.94 48.94 0 0 1-10.7 1.16q-14.3 0-20.02-7.55-5.7-7.54-5.7-25.8V116.9h46.67V85h-46.68V35.75l-39.7 14.6V85h-19.68v31.9h19.7v86.06q0 26.52 13.64 40.88 13.7 14.4 39.1 14.38 25.6 0 39.4-4.77v-36.52a50.1 50.1 0 0 1-16 6.63z"/><path class="color-pr" fill="#6d2b54" d="M289.73 108.22a83.83 83.83 0 0 0-7.2 8.67h7.2zm5.73 108.7a50.1 50.1 0 0 1-15.98 6.64 69.87 69.87 0 0 0 9.5 11.87 74.83 74.83 0 0 0 6.48 5.8z"/><path class="color-blue" fill="#224099" d="M183.67 85H128.6v32.53h21.77v137.5h40.18V85h-6.87z"/><path class="color-bp" fill="#2e3292" d="M183.67 85h6.86v31.9h-6.86z"/><path class="color-green" fill="#8bc53f" d="M92.57 220.1a100.88 100.88 0 0 0-19.85 2.4c-7.73 1.6-13.23 2.36-16.5 2.36q-10.97 0-10.97-6.35 0-3.6 7.38-7 7.4-3.4 8.5-3.4l6.5 1a109.5 109.5 0 0 0 11.44.8q27 0 44.7-17.4 17.7-17.34 17.7-46.4a65.28 65.28 0 0 0-5.98-28.43 57.27 57.27 0 0 0-3.9-6.83L150.5 97l-13.1-12-14.34-13.05-15.57 18.1Q92.1 81.5 69.2 81.5q-29.2 0-49.22 17.84Q0 117.2 0 144.52q0 34.62 29.06 53.5a42.15 42.15 0 0 0-15.9 11.94q-6.8 8.08-6.82 16.5 0 29.38 40.97 29.37a179.8 179.8 0 0 0 19.9-1.6 182.54 182.54 0 0 1 19.9-1.57q24.6 0 24.6 15.08 0 8.9-11.1 13.98t-28.2 5.08q-25.55 0-46.36-19.06L.78 298.7a117.18 117.18 0 0 0 70.67 23.04q32.7 0 55.9-14.7 23.2-14.7 23.18-40.4 0-46.52-57.96-46.54zm-43.5-97.5q8.56-8.57 22.22-8.57 13 0 21.2 8.9a31 31 0 0 1 8.1 21.75q0 15.57-7.7 24.45-7.6 8.9-21.75 8.9T48.7 168.9t-8.34-24.22q0-13.5 8.56-22.07z"/><path class="color-gb" fill="#31423c" d="M137.4 85h-8.8v32.53h6.9a57.26 57.26 0 0 0-3.87-6.83l18.9-13.8z"/><path class="color-green" fill="#8bc53f" d="M168.7 19.62a22.2 22.2 0 0 1 16.27 6.75 22.14 22.14 0 0 1 6.75 16.28 22.13 22.13 0 0 1-6.75 16.26 23 23 0 0 1-32.54 0 22.15 22.15 0 0 1-6.76-16.2 22.16 22.16 0 0 1 6.76-16.3 22.15 22.15 0 0 1 16.26-6.7"/></svg>